<svg width="19" height="31" viewBox="0 0 19 31" fill="none" xmlns="http://www.w3.org/2000/svg">
<path d="M17.0101 30.0743C16.6232 30.0698 16.2528 29.9169 15.9764 29.6474L2.32426 16.0643C2.05034 15.7915 1.89648 15.4214 1.89648 15.0358C1.89648 14.6501 2.05034 14.2802 2.32426 14.0074L15.9764 0.424255C16.182 0.220527 16.4439 0.0822324 16.7287 0.0269491C17.0134 -0.0283536 17.3083 0.00187801 17.5757 0.113784C17.8425 0.222293 18.0707 0.407819 18.2304 0.646455C18.3903 0.885091 18.4748 1.16589 18.4728 1.45269V28.619C18.4748 28.9058 18.3903 29.1866 18.2304 29.4252C18.0707 29.6637 17.8425 29.8494 17.5757 29.9579C17.3969 30.0337 17.2046 30.0731 17.0101 30.0743ZM5.42524 15.0358L15.5474 25.1068V4.9649L5.42524 15.0358Z" fill="white"/>
<path d="M1.42083 30.0743C1.04552 30.0693 0.686982 29.9144 0.42157 29.6426C0.156178 29.3708 0.00490661 29.0035 0 28.6191V1.45521C0 1.06927 0.149699 0.69912 0.416152 0.42622C0.682606 0.15332 1.04401 0 1.42083 0C1.79766 0 2.15906 0.15332 2.42551 0.42622C2.69197 0.69912 2.84167 1.06927 2.84167 1.45521V28.6191C2.83676 29.0035 2.68549 29.3708 2.4201 29.6426C2.15468 29.9144 1.79614 30.0693 1.42083 30.0743Z" fill="white"/>
</svg>
